<svg width="16" height="16" viewBox="0 0 16 16" fill="none" xmlns="http://www.w3.org/2000/svg">
<g clip-path="url(#clip0_9652_2710)">
<path opacity="0.7" d="M9.699 0.193675V9.49007C9.699 9.59703 9.61229 9.68374 9.50533 9.68374H0.208934C0.10197 9.68374 0.0152588 9.59703 0.0152588 9.49007V5.03555C0.0152588 4.92858 0.10197 4.84187 0.208934 4.84187H4.66346C4.77042 4.84187 4.85713 4.75516 4.85713 4.6482V0.193675C4.85713 0.0867111 4.94384 0 5.05081 0H9.50533C9.61229 0 9.699 0.0867111 9.699 0.193675Z" fill="#FF2F1D"/>
<path opacity="0.8" d="M6.31625 15.8063V6.50993C6.31625 6.40297 6.40296 6.31626 6.50993 6.31626H15.8063C15.9133 6.31626 16 6.40297 16 6.50993V10.9645C16 11.0714 15.9133 11.1581 15.8063 11.1581H11.3518C11.2448 11.1581 11.1581 11.2448 11.1581 11.3518V15.8063C11.1581 15.9133 11.0714 16 10.9645 16H6.50993C6.40296 16 6.31625 15.9133 6.31625 15.8063Z" fill="#3D53F6"/>
</g>
<defs>
<clipPath id="clip0_9652_2710">
<rect width="15.9847" height="16" fill="white" transform="translate(0.0152588)"/>
</clipPath>
</defs>
</svg>
