<svg width="1304" height="460" viewBox="0 0 1304 460" fill="none" xmlns="http://www.w3.org/2000/svg">
<path d="M300.188 28.999H366.748C404.705 28.999 431.436 52.2541 431.436 85.4008C431.436 118.547 404.705 141.803 366.748 141.803H331.196V216.114H300.188V28.999ZM366.748 112.934C386.796 112.934 400.963 101.439 400.963 85.4008C400.963 69.3617 386.796 57.868 366.748 57.868H331.196V112.934H366.748Z" fill="#1A285F"/>
<path d="M439.182 148.753C439.182 107.32 467.25 78.7175 504.673 78.7175C521.78 78.7175 535.413 86.7371 545.571 98.2316L548.244 81.124H574.974V216.114H545.571V200.076C535.68 211.035 522.315 219.055 504.94 219.055C467.517 219.055 439.182 189.918 439.182 148.753ZM507.613 191.789C530.601 191.789 546.907 173.879 546.907 148.753C546.907 123.358 530.335 105.984 507.346 105.984C484.357 105.984 468.586 123.358 468.586 148.753C468.586 173.879 484.625 191.789 507.613 191.789Z" fill="#1A285F"/>
<path d="M650.082 103.845C637.786 104.646 631.371 111.597 631.371 117.477C631.371 126.833 639.925 131.377 663.447 135.387C688.575 139.664 708.89 150.624 708.89 177.622C708.89 201.947 686.703 219.055 653.29 219.055C624.153 219.055 603.838 205.956 595.017 188.581L618.005 175.216C625.223 184.839 635.915 191.254 649.281 192.056C665.319 193.125 679.486 189.65 679.486 176.82C679.486 167.998 669.596 162.652 647.677 158.91C626.025 155.168 601.433 143.406 601.433 116.943C601.433 94.4889 620.411 78.985 650.082 78.1831C669.596 77.6488 688.575 83.5294 699.534 93.1527L686.703 112.934C675.209 105.448 664.249 103.043 650.082 103.845Z" fill="#1A285F"/>
<path d="M781.327 103.845C769.03 104.646 762.615 111.597 762.615 117.477C762.615 126.833 771.169 131.377 794.692 135.387C819.819 139.664 840.134 150.624 840.134 177.622C840.134 201.947 817.947 219.055 784.534 219.055C755.398 219.055 735.082 205.956 726.261 188.581L749.249 175.216C756.467 184.839 767.159 191.254 780.525 192.056C796.563 193.125 810.73 189.65 810.73 176.82C810.73 167.998 800.84 162.652 778.921 158.91C757.269 155.168 732.677 143.406 732.677 116.943C732.677 94.4889 751.655 78.985 781.327 78.1831C800.84 77.6488 819.819 83.5294 830.778 93.1527L817.947 112.934C806.453 105.448 795.493 103.043 781.327 103.845Z" fill="#1A285F"/>
<path d="M857.505 148.753C857.505 107.32 885.572 78.7175 922.996 78.7175C940.103 78.7175 953.736 86.7371 963.894 98.2316L966.567 81.124H993.297V216.114H963.894V200.076C954.003 211.035 940.638 219.055 923.263 219.055C885.84 219.055 857.505 189.918 857.505 148.753ZM925.936 191.789C948.924 191.789 965.23 173.879 965.23 148.753C965.23 123.358 948.657 105.984 925.668 105.984C902.679 105.984 886.909 123.358 886.909 148.753C886.909 173.879 902.947 191.789 925.936 191.789Z" fill="#1A285F"/>
<path d="M1016.01 149.555C1016.01 108.122 1044.35 78.9851 1081.77 78.9851C1099.15 78.9851 1112.51 85.9352 1122.4 96.3603V81.3907H1152.07V216.381C1152.07 254.339 1121.87 280 1081.77 280C1054.5 280 1028.04 265.031 1016.81 244.181L1039.54 230.548C1048.89 243.914 1065.73 252.735 1081.77 252.735C1104.76 252.735 1122.4 238.3 1122.4 219.055V202.214C1112.78 212.105 1099.41 219.055 1082.04 219.055C1044.61 219.055 1016.01 190.72 1016.01 149.555ZM1084.44 192.591C1107.43 192.591 1123.74 174.681 1123.74 149.555C1123.74 124.161 1107.43 106.25 1084.44 106.25C1061.46 106.25 1045.42 124.161 1045.42 149.555C1045.42 174.681 1061.46 192.591 1084.44 192.591Z" fill="#1A285F"/>
<path d="M1240.81 219.055C1200.45 218.787 1172.12 189.383 1172.12 148.753C1172.12 107.32 1199.11 77.6488 1238.94 78.1831C1276.37 78.7174 1307.37 104.112 1302.83 159.712H1201.52C1205.8 179.225 1221.3 191.522 1240.81 191.788C1257.12 192.056 1270.22 186.443 1278.5 175.216L1300.96 187.779C1288.66 208.094 1268.08 219.321 1240.81 219.055ZM1276.1 134.318C1271.02 116.409 1256.05 104.914 1238.94 104.914C1220.5 104.914 1206.87 116.409 1202.32 134.318H1276.1Z" fill="#1A285F"/>
<path opacity="0.8" d="M37.8419 71.6921L65.1425 87.4541C86.2537 99.6426 93.4921 126.639 81.3036 147.75C80.2315 149.607 79.045 151.353 77.7583 152.989L12.6182 115.381C8.67588 113.105 5.58417 109.922 3.44179 106.254C-0.964934 98.6912 -1.30613 89.0446 3.38448 80.9202C10.348 68.8591 25.7752 64.7254 37.8419 71.6921Z" fill="#3D53F6"/>
<path opacity="0.5" d="M37.8419 180.052L65.1425 164.29C86.2537 152.101 93.4921 125.105 81.3036 103.994C80.2315 102.137 79.045 100.391 77.7583 98.7544L12.6182 136.363C8.67588 138.639 5.58417 141.822 3.44179 145.49C-0.964934 153.053 -1.30613 162.699 3.38448 170.824C10.348 182.885 25.7752 187.019 37.8419 180.052Z" fill="#3D53F6"/>
<path opacity="0.5" d="M212.753 71.6921L185.452 87.4541C164.341 99.6426 157.103 126.639 169.291 147.75C170.363 149.607 171.55 151.353 172.836 152.989L237.976 115.381C241.919 113.105 245.01 109.922 247.153 106.254C251.56 98.6912 251.901 89.0446 247.21 80.9202C240.247 68.8591 224.819 64.7254 212.753 71.6921Z" fill="#3D53F6"/>
<path opacity="0.8" d="M212.753 180.052L185.452 164.29C164.341 152.101 157.103 125.105 169.291 103.994C170.363 102.137 171.55 100.391 172.836 98.7544L237.976 136.363C241.919 138.639 245.01 141.822 247.153 145.49C251.56 153.053 251.901 162.699 247.21 170.824C240.247 182.885 224.819 187.019 212.753 180.052Z" fill="#3D53F6"/>
<path d="M125.297 150.525C139.228 150.525 150.52 139.232 150.52 125.302C150.52 111.372 139.228 100.079 125.297 100.079C111.367 100.079 100.075 111.372 100.075 125.302C100.075 139.232 111.367 150.525 125.297 150.525Z" fill="#FF2F1D"/>
<path opacity="0.8" d="M71.1172 212.753L86.8793 185.452C99.0678 164.341 126.064 157.102 147.175 169.291C149.032 170.363 150.778 171.55 152.415 172.836L114.806 237.976C112.53 241.919 109.347 245.01 105.679 247.153C98.1164 251.559 88.4698 251.901 80.3454 247.21C68.2842 240.247 64.1505 224.819 71.1172 212.753Z" fill="#FF2F1D"/>
<path opacity="0.5" d="M179.477 212.752L163.715 185.452C151.526 164.341 124.53 157.102 103.419 169.291C101.562 170.363 99.8157 171.549 98.1794 172.836L135.788 237.976C138.064 241.919 141.247 245.01 144.915 247.153C152.478 251.559 162.124 251.901 170.249 247.21C182.31 240.246 186.444 224.819 179.477 212.752Z" fill="#FF2F1D"/>
<path opacity="0.5" d="M71.1172 37.8419L86.8793 65.1425C99.0678 86.2537 126.064 93.4921 147.175 81.3036C149.032 80.2315 150.778 79.045 152.415 77.7583L114.806 12.6182C112.53 8.67589 109.347 5.58416 105.679 3.44179C98.1164 -0.964936 88.4698 -1.30613 80.3454 3.38449C68.2842 10.348 64.1505 25.7752 71.1172 37.8419Z" fill="#3D53F6"/>
<path opacity="0.8" d="M179.477 37.8419L163.715 65.1425C151.526 86.2537 124.53 93.4921 103.419 81.3036C101.562 80.2315 99.8157 79.045 98.1794 77.7583L135.788 12.6182C138.064 8.67589 141.247 5.58416 144.915 3.44179C152.478 -0.964936 162.124 -1.30613 170.249 3.38449C182.31 10.348 186.444 25.7752 179.477 37.8419Z" fill="#3D53F6"/>
<path d="M349.995 348.2H341.305V423H349.885V413.1C353.625 420.36 360.225 424.32 368.475 424.32C383.105 424.32 392.895 411.89 392.895 396.27C392.895 380.76 383.105 368.33 368.475 368.33C360.225 368.33 353.625 372.4 349.995 380.21V348.2ZM367.045 416.84C357.035 416.84 350.105 408.92 350.105 396.27C350.105 383.73 357.035 375.81 367.045 375.81C376.835 375.81 383.765 383.73 383.765 396.27C383.765 408.92 376.945 416.84 367.045 416.84ZM419.802 445L449.062 369.65H440.592L424.092 412.22L407.702 369.65H398.352L420.022 422.89L411.442 445H419.802ZM489.618 423H505.348V350.51H493.248C490.938 354.8 485.988 356.67 479.058 356.67V369.32H489.618V423ZM520.048 423H535.888V399.57H547.988C564.598 399.57 574.168 389.45 574.168 375.15C574.168 361.4 564.598 351.5 547.988 351.5H520.048V423ZM547.988 365.03C553.598 365.03 558.218 368.11 558.218 375.48C558.218 382.74 553.598 385.93 547.988 385.93H535.888V365.03H547.988ZM628.153 423V390.88C628.153 375.92 619.573 367.23 604.283 367.23C592.623 367.23 583.713 373.61 580.303 384.06L594.383 387.47C596.143 382.52 599.223 379.55 604.283 379.55C609.343 379.55 612.863 382.85 612.863 388.79V389.67C612.863 391.32 612.313 391.98 610.333 391.98H596.583C585.143 391.98 578.213 397.81 578.213 407.38C578.213 417.72 586.133 424.32 597.243 424.32C603.953 424.32 610.443 421.57 614.073 415.3V423H628.153ZM600.873 412.88C596.253 412.88 593.393 410.68 593.393 407.05C593.393 403.75 595.373 401.44 600.103 401.44H612.863V402.54C612.863 408.92 607.473 412.88 600.873 412.88ZM659.727 413.21C654.007 413.21 649.827 410.79 648.067 406.06L635.087 409.36C637.507 419.48 647.077 424.32 659.067 424.32C674.027 424.32 682.497 416.62 682.497 406.39C682.497 386.37 650.597 393.19 650.597 383.29C650.597 379.88 653.457 377.9 658.407 377.9C663.577 377.9 666.987 380.87 668.417 385.49L681.947 383.07C679.637 373.72 672.157 367.23 658.407 367.23C643.997 367.23 636.187 374.82 636.187 384.5C636.187 405.18 668.087 399.13 668.087 407.71C668.087 411.01 665.227 413.21 659.727 413.21ZM711.561 413.21C705.841 413.21 701.661 410.79 699.901 406.06L686.921 409.36C689.341 419.48 698.911 424.32 710.901 424.32C725.861 424.32 734.331 416.62 734.331 406.39C734.331 386.37 702.431 393.19 702.431 383.29C702.431 379.88 705.291 377.9 710.241 377.9C715.411 377.9 718.821 380.87 720.251 385.49L733.781 383.07C731.471 373.72 723.991 367.23 710.241 367.23C695.831 367.23 688.021 374.82 688.021 384.5C688.021 405.18 719.921 399.13 719.921 407.71C719.921 411.01 717.061 413.21 711.561 413.21ZM769.444 423L778.354 385.16L787.264 423H806.734L820.044 368.55H805.634L796.944 410.9L785.944 368.55H770.764L760.644 410.79L751.844 368.55H737.324L750.634 423H769.444ZM851.196 424.32C867.696 424.32 879.026 411.56 879.026 395.72C879.026 379.99 867.696 367.23 851.196 367.23C834.696 367.23 823.366 379.99 823.366 395.72C823.366 411.56 834.696 424.32 851.196 424.32ZM851.196 411.23C844.376 411.23 839.096 405.4 839.096 395.72C839.096 386.04 844.376 380.32 851.196 380.32C858.016 380.32 863.296 386.04 863.296 395.72C863.296 405.4 858.016 411.23 851.196 411.23ZM901.71 368.55H887.63V423H903.03V394.18C903.03 384.72 907.65 382.63 914.91 382.63C916.67 382.63 918.65 382.85 920.52 383.18L923.05 368.33C921.62 367.67 919.86 367.23 917.55 367.23C910.18 367.23 904.57 371.41 901.71 379.88V368.55ZM981.616 348.2H966.656V376.14C963.136 369.76 957.526 367.23 950.266 367.23C936.076 367.23 926.286 379.44 926.286 395.72C926.286 412.11 936.076 424.32 950.266 424.32C957.966 424.32 963.796 421.24 966.986 413.21V423H981.616V348.2ZM954.006 411.56C946.196 411.56 941.906 404.96 941.906 395.72C941.906 386.59 946.196 379.99 954.006 379.99C961.926 379.99 966.216 386.59 966.216 395.72C966.216 404.96 961.926 411.56 954.006 411.56Z" fill="#1A285F"/>
</svg>
